REM DIRINDEX 1\2,1\3,1\4,1\5,1\6
REM DIRNAME cjc030,folder01,folder02,folder03,folder04,folder05
TITLE ""
FILE "Disc2Track09.mp3" MP3
  TRACK 01 AUDIO
    TITLE "3:cjc030_02248"
    INDEX 01 00:00:00
  TRACK 02 AUDIO
    TITLE "0:"
    INDEX 01 00:00:54
  TRACK 03 AUDIO
    TITLE "4:cjc030_02249"
    INDEX 01 00:00:64
  TRACK 04 AUDIO
    TITLE "0:"
    INDEX 01 00:02:55
  TRACK 05 AUDIO
    TITLE "5:cjc030_02250"
    INDEX 01 00:02:63
  TRACK 06 AUDIO
    TITLE "0:"
    INDEX 01 00:03:57
  TRACK 07 AUDIO
    TITLE "6:cjc030_02251"
    INDEX 01 00:03:68
  TRACK 08 AUDIO
    TITLE "0:"
    INDEX 01 00:07:23
  TRACK 09 AUDIO
    TITLE "3:cjc030_02252"
    INDEX 01 00:07:72
  TRACK 10 AUDIO
    TITLE "0:"
    INDEX 01 00:09:04
  TRACK 11 AUDIO
    TITLE "4:cjc030_02253"
    INDEX 01 00:09:14
  TRACK 12 AUDIO
    TITLE "0:"
    INDEX 01 00:10:06
  TRACK 13 AUDIO
    TITLE "5:cjc030_02254"
    INDEX 01 00:10:14
  TRACK 14 AUDIO
    TITLE "0:"
    INDEX 01 00:11:25
  TRACK 15 AUDIO
    TITLE "6:cjc030_02255"
    INDEX 01 00:11:37
  TRACK 16 AUDIO
    TITLE "0:"
    INDEX 01 00:14:23
  TRACK 17 AUDIO
    TITLE "3:cjc030_02256"
    INDEX 01 00:14:72
  TRACK 18 AUDIO
    TITLE "0:"
    INDEX 01 00:16:06
  TRACK 19 AUDIO
    TITLE "4:cjc030_02257"
    INDEX 01 00:16:16
  TRACK 20 AUDIO
    TITLE "0:"
    INDEX 01 00:17:65
  TRACK 21 AUDIO
    TITLE "5:cjc030_02258"
    INDEX 01 00:17:72
  TRACK 22 AUDIO
    TITLE "0:"
    INDEX 01 00:19:09
  TRACK 23 AUDIO
    TITLE "6:cjc030_02259"
    INDEX 01 00:19:20
  TRACK 24 AUDIO
    TITLE "0:"
    INDEX 01 00:26:15
  TRACK 25 AUDIO
    TITLE "3:cjc030_02260"
    INDEX 01 00:26:64
  TRACK 26 AUDIO
    TITLE "0:"
    INDEX 01 00:28:02
  TRACK 27 AUDIO
    TITLE "4:cjc030_02261"
    INDEX 01 00:28:06
  TRACK 28 AUDIO
    TITLE "0:"
    INDEX 01 00:30:42
  TRACK 29 AUDIO
    TITLE "5:cjc030_02262"
    INDEX 01 00:30:50
  TRACK 30 AUDIO
    TITLE "0:"
    INDEX 01 00:31:63
  TRACK 31 AUDIO
    TITLE "6:cjc030_02263"
    INDEX 01 00:32:01
  TRACK 32 AUDIO
    TITLE "0:"
    INDEX 01 00:34:02
  TRACK 33 AUDIO
    TITLE "3:cjc030_02264"
    INDEX 01 00:34:49
  TRACK 34 AUDIO
    TITLE "0:"
    INDEX 01 00:35:66
  TRACK 35 AUDIO
    TITLE "4:cjc030_02265"
    INDEX 01 00:35:74
  TRACK 36 AUDIO
    TITLE "0:"
    INDEX 01 00:38:02
  TRACK 37 AUDIO
    TITLE "5:cjc030_02266"
    INDEX 01 00:38:10
  TRACK 38 AUDIO
    TITLE "0:"
    INDEX 01 00:39:27
  TRACK 39 AUDIO
    TITLE "3:cjc030_02267"
    INDEX 01 00:40:07
  TRACK 40 AUDIO
    TITLE "0:"
    INDEX 01 00:41:24
  TRACK 41 AUDIO
    TITLE "4:cjc030_02268"
    INDEX 01 00:41:30
  TRACK 42 AUDIO
    TITLE "0:"
    INDEX 01 00:42:49
  TRACK 43 AUDIO
    TITLE "5:cjc030_02269"
    INDEX 01 00:42:57
  TRACK 44 AUDIO
    TITLE "0:"
    INDEX 01 00:43:70
  TRACK 45 AUDIO
    TITLE "6:cjc030_02270"
    INDEX 01 00:44:09
  TRACK 46 AUDIO
    TITLE "0:"
    INDEX 01 00:47:07
  TRACK 47 AUDIO
    TITLE "3:cjc030_02271"
    INDEX 01 00:47:56
  TRACK 48 AUDIO
    TITLE "0:"
    INDEX 01 00:48:71
  TRACK 49 AUDIO
    TITLE "4:cjc030_02272"
    INDEX 01 00:49:04
  TRACK 50 AUDIO
    TITLE "0:"
    INDEX 01 00:51:15
  TRACK 51 AUDIO
    TITLE "5:cjc030_02273"
    INDEX 01 00:51:28
  TRACK 52 AUDIO
    TITLE "0:"
    INDEX 01 00:52:39
  TRACK 53 AUDIO
    TITLE "6:cjc030_02274"
    INDEX 01 00:52:51
  TRACK 54 AUDIO
    TITLE "0:"
    INDEX 01 00:56:63
  TRACK 55 AUDIO
    TITLE "3:cjc030_02275"
    INDEX 01 00:57:37
  TRACK 56 AUDIO
    TITLE "0:"
    INDEX 01 00:59:08
  TRACK 57 AUDIO
    TITLE "4:cjc030_02276"
    INDEX 01 00:59:16
  TRACK 58 AUDIO
    TITLE "0:"
    INDEX 01 01:01:44
  TRACK 59 AUDIO
    TITLE "5:cjc030_02277"
    INDEX 01 01:01:54
  TRACK 60 AUDIO
    TITLE "0:"
    INDEX 01 01:03:26
  TRACK 61 AUDIO
    TITLE "6:cjc030_02278"
    INDEX 01 01:03:37
  TRACK 62 AUDIO
    TITLE "0:"
    INDEX 01 01:09:38
  TRACK 63 AUDIO
    TITLE "3:cjc030_02279"
    INDEX 01 01:10:10
  TRACK 64 AUDIO
    TITLE "0:"
    INDEX 01 01:11:37
  TRACK 65 AUDIO
    TITLE "4:cjc030_02280"
    INDEX 01 01:11:45
  TRACK 66 AUDIO
    TITLE "0:"
    INDEX 01 01:14:31
  TRACK 67 AUDIO
    TITLE "5:cjc030_02281"
    INDEX 01 01:14:39
  TRACK 68 AUDIO
    TITLE "0:"
    INDEX 01 01:15:66
  TRACK 69 AUDIO
    TITLE "6:cjc030_02282"
    INDEX 01 01:16:03
  TRACK 70 AUDIO
    TITLE "0:"
    INDEX 01 01:17:73
  TRACK 71 AUDIO
    TITLE "3:cjc030_02283"
    INDEX 01 01:18:45
  TRACK 72 AUDIO
    TITLE "0:"
    INDEX 01 01:20:32
  TRACK 73 AUDIO
    TITLE "4:cjc030_02284"
    INDEX 01 01:20:42
  TRACK 74 AUDIO
    TITLE "0:"
    INDEX 01 01:22:17
  TRACK 75 AUDIO
    TITLE "5:cjc030_02285"
    INDEX 01 01:22:25
  TRACK 76 AUDIO
    TITLE "0:"
    INDEX 01 01:24:14
  TRACK 77 AUDIO
    TITLE "6:cjc030_02286"
    INDEX 01 01:24:24
  TRACK 78 AUDIO
    TITLE "0:"
    INDEX 01 01:29:64
